<mxfile host="app.diagrams.net" modified="2024-01-19T10:15:38.980Z" agent="Mozilla/5.0 (Windows NT 10.0; Win64; x64) AppleWebKit/537.36 (KHTML, like Gecko) Chrome/120.0.0.0 Safari/537.36" version="22.1.21" etag="AKfiWodDGib9Aj30ThEJ" type="github">
  <diagram name="Page-1" id="hHgvDMsOO0Ha8qBBIuoE">
    <mxGraphModel>
      <root>
        <mxCell id="0" />
        <mxCell id="1" parent="0" />
      </root>
    </mxGraphModel>
  </diagram>
</mxfile>
